<svg width="56" height="53" viewBox="0 0 56 53" fill="none" xmlns="http://www.w3.org/2000/svg">
<path d="M46.6666 8.83139H14C11.4263 8.83139 9.33331 10.8118 9.33331 13.2471V24.2863H14V17.6628L28.9333 28.2604C29.3374 28.5467 29.8285 28.7015 30.3333 28.7015C30.8381 28.7015 31.3293 28.5467 31.7333 28.2604L46.6666 17.6628V37.5334H28V41.9491H46.6666C49.2403 41.9491 51.3333 39.9687 51.3333 37.5334V13.2471C51.3333 10.8118 49.2403 8.83139 46.6666 8.83139ZM30.3333 23.7344L15.554 13.2471H45.1126L30.3333 23.7344Z" fill="black"/>
<path d="M4.66669 26.4942H21V30.9099H4.66669V26.4942ZM9.33335 33.1177H23.3334V37.5334H9.33335V33.1177ZM16.3334 39.7413H25.6667V44.1569H16.3334V39.7413Z" fill="black"/>
</svg>
