<svg width="130" height="124" viewBox="0 0 130 124" fill="none" xmlns="http://www.w3.org/2000/svg">
<g clip-path="url(#clip0_121_113)">
<path d="M97.5 7.6878C99.6549 7.6878 101.722 8.49778 103.245 9.93957C104.769 11.3814 105.625 13.3368 105.625 15.3758V107.632C105.625 109.671 104.769 111.627 103.245 113.069C101.722 114.51 99.6549 115.32 97.5 115.32H32.5C30.3451 115.32 28.2785 114.51 26.7548 113.069C25.231 111.627 24.375 109.671 24.375 107.632V15.3758C24.375 13.3368 25.231 11.3814 26.7548 9.93957C28.2785 8.49778 30.3451 7.6878 32.5 7.6878H97.5ZM32.5 -0.000244141C28.1902 -0.000244141 24.057 1.61973 21.0095 4.50331C17.962 7.38688 16.25 11.2978 16.25 15.3758V107.632C16.25 111.71 17.962 115.621 21.0095 118.505C24.057 121.388 28.1902 123.008 32.5 123.008H97.5C101.81 123.008 105.943 121.388 108.99 118.505C112.038 115.621 113.75 111.71 113.75 107.632V15.3758C113.75 11.2978 112.038 7.38688 108.99 4.50331C105.943 1.61973 101.81 -0.000244141 97.5 -0.000244141L32.5 -0.000244141Z" fill="black"/>
<path d="M32.5 19.2198C32.5 18.2003 32.928 17.2225 33.6899 16.5016C34.4517 15.7807 35.4851 15.3757 36.5625 15.3757H93.4375C94.5149 15.3757 95.5483 15.7807 96.3101 16.5016C97.072 17.2225 97.5 18.2003 97.5 19.2198V34.5958C97.5 35.6153 97.072 36.5931 96.3101 37.314C95.5483 38.0349 94.5149 38.4399 93.4375 38.4399H36.5625C35.4851 38.4399 34.4517 38.0349 33.6899 37.314C32.928 36.5931 32.5 35.6153 32.5 34.5958V19.2198ZM32.5 49.9719C32.5 48.9524 32.928 47.9747 33.6899 47.2538C34.4517 46.5329 35.4851 46.1279 36.5625 46.1279H44.6875C45.7649 46.1279 46.7983 46.5329 47.5601 47.2538C48.322 47.9747 48.75 48.9524 48.75 49.9719V57.66C48.75 58.6795 48.322 59.6572 47.5601 60.3781C46.7983 61.099 45.7649 61.504 44.6875 61.504H36.5625C35.4851 61.504 34.4517 61.099 33.6899 60.3781C32.928 59.6572 32.5 58.6795 32.5 57.66V49.9719ZM32.5 73.036C32.5 72.0165 32.928 71.0388 33.6899 70.3179C34.4517 69.597 35.4851 69.192 36.5625 69.192H44.6875C45.7649 69.192 46.7983 69.597 47.5601 70.3179C48.322 71.0388 48.75 72.0165 48.75 73.036V80.7241C48.75 81.7436 48.322 82.7213 47.5601 83.4422C46.7983 84.1631 45.7649 84.5681 44.6875 84.5681H36.5625C35.4851 84.5681 34.4517 84.1631 33.6899 83.4422C32.928 82.7213 32.5 81.7436 32.5 80.7241V73.036ZM32.5 96.1002C32.5 95.0807 32.928 94.1029 33.6899 93.382C34.4517 92.6611 35.4851 92.2561 36.5625 92.2561H44.6875C45.7649 92.2561 46.7983 92.6611 47.5601 93.382C48.322 94.1029 48.75 95.0807 48.75 96.1002V103.788C48.75 104.808 48.322 105.785 47.5601 106.506C46.7983 107.227 45.7649 107.632 44.6875 107.632H36.5625C35.4851 107.632 34.4517 107.227 33.6899 106.506C32.928 105.785 32.5 104.808 32.5 103.788V96.1002ZM56.875 49.9719C56.875 48.9524 57.303 47.9747 58.0649 47.2538C58.8267 46.5329 59.8601 46.1279 60.9375 46.1279H69.0625C70.1399 46.1279 71.1733 46.5329 71.9351 47.2538C72.697 47.9747 73.125 48.9524 73.125 49.9719V57.66C73.125 58.6795 72.697 59.6572 71.9351 60.3781C71.1733 61.099 70.1399 61.504 69.0625 61.504H60.9375C59.8601 61.504 58.8267 61.099 58.0649 60.3781C57.303 59.6572 56.875 58.6795 56.875 57.66V49.9719ZM56.875 73.036C56.875 72.0165 57.303 71.0388 58.0649 70.3179C58.8267 69.597 59.8601 69.192 60.9375 69.192H69.0625C70.1399 69.192 71.1733 69.597 71.9351 70.3179C72.697 71.0388 73.125 72.0165 73.125 73.036V80.7241C73.125 81.7436 72.697 82.7213 71.9351 83.4422C71.1733 84.1631 70.1399 84.5681 69.0625 84.5681H60.9375C59.8601 84.5681 58.8267 84.1631 58.0649 83.4422C57.303 82.7213 56.875 81.7436 56.875 80.7241V73.036ZM56.875 96.1002C56.875 95.0807 57.303 94.1029 58.0649 93.382C58.8267 92.6611 59.8601 92.2561 60.9375 92.2561H69.0625C70.1399 92.2561 71.1733 92.6611 71.9351 93.382C72.697 94.1029 73.125 95.0807 73.125 96.1002V103.788C73.125 104.808 72.697 105.785 71.9351 106.506C71.1733 107.227 70.1399 107.632 69.0625 107.632H60.9375C59.8601 107.632 58.8267 107.227 58.0649 106.506C57.303 105.785 56.875 104.808 56.875 103.788V96.1002ZM81.25 49.9719C81.25 48.9524 81.678 47.9747 82.4399 47.2538C83.2017 46.5329 84.2351 46.1279 85.3125 46.1279H93.4375C94.5149 46.1279 95.5483 46.5329 96.3101 47.2538C97.072 47.9747 97.5 48.9524 97.5 49.9719V57.66C97.5 58.6795 97.072 59.6572 96.3101 60.3781C95.5483 61.099 94.5149 61.504 93.4375 61.504H85.3125C84.2351 61.504 83.2017 61.099 82.4399 60.3781C81.678 59.6572 81.25 58.6795 81.25 57.66V49.9719ZM81.25 73.036C81.25 72.0165 81.678 71.0388 82.4399 70.3179C83.2017 69.597 84.2351 69.192 85.3125 69.192H93.4375C94.5149 69.192 95.5483 69.597 96.3101 70.3179C97.072 71.0388 97.5 72.0165 97.5 73.036V103.788C97.5 104.808 97.072 105.785 96.3101 106.506C95.5483 107.227 94.5149 107.632 93.4375 107.632H85.3125C84.2351 107.632 83.2017 107.227 82.4399 106.506C81.678 105.785 81.25 104.808 81.25 103.788V73.036Z" fill="black"/>
</g>
<defs>
<clipPath id="clip0_121_113">
<rect width="130" height="123.009" fill="white" transform="translate(0 -0.000244141)"/>
</clipPath>
</defs>
</svg>
