<svg width="131" height="99" viewBox="0 0 131 99" fill="none" xmlns="http://www.w3.org/2000/svg">
<path d="M103.592 24.4288C99.9141 20.5521 91.0123 12.5796 78.4772 10.7633C73.8717 10.1186 69.1864 11.4563 65.498 14.2632C61.8156 11.6224 57.1283 10.2674 52.5023 10.9286C36.1888 13.2945 25.9339 26.1778 25.5041 26.7352C23.8985 28.7898 24.3719 31.6786 26.5531 33.1874C27.3943 33.7699 28.4124 34.0836 29.4576 34.0824C30.9735 34.0824 32.4645 33.4338 33.4244 32.2023C33.5075 32.0941 41.6508 21.8408 53.9955 20.0495C55.5219 19.8647 57.0618 20.1782 58.4086 20.9111L46.505 32.3282C43.9669 34.6923 42.3908 37.6906 42.3908 41.2271C42.3908 44.5906 43.7851 47.7504 46.3126 50.1241C49.0227 52.5093 52.3795 53.6433 55.9616 53.6433C59.5436 53.6433 62.9087 52.3338 65.4406 49.955L67.7638 47.7735L93.186 67.1666C93.6593 67.527 93.7297 68.1758 93.2884 68.6984L87.6206 75.5696C87.2431 76.0021 86.546 76.0682 86.1558 75.7739L81.6077 72.1817L76.2469 77.5153C75.7671 78.0678 75.1531 78.2001 74.8333 78.23C74.4944 78.26 73.8996 78.2541 73.439 77.8997L66.8051 72.5834L63.5964 75.4005L63.0208 75.9652C61.8246 77.3407 60.1368 78.2062 58.2557 78.3869C56.3175 78.5432 54.5202 78.0505 53.2409 77.0834L34.8583 61.4659H19.65V24.6594H0V73.786L13.1 73.7937C15.503 73.7937 17.5151 72.5048 18.6552 70.6915H31.0675L46.8407 84.0803C49.8823 86.4136 53.6077 87.6437 57.4762 87.6437C58.0647 87.6437 58.6595 87.6197 59.248 87.5595C62.0359 87.2893 64.6538 86.3942 66.9177 84.9648L67.1031 85.121C69.5655 87.0192 72.687 87.8907 75.8412 87.5774C78.5411 87.3131 81.0157 86.2258 82.7822 84.6271C87.099 86.2008 92.2162 85.0776 95.3193 81.4615L100.987 74.5903C104.768 70.2043 104.051 63.7348 99.3815 60.1733L74.7576 41.3838L76.4731 39.7727C78.392 37.9707 78.392 35.0504 76.4731 33.2494C74.5542 31.4474 71.446 31.4474 69.526 33.2494L58.4997 43.5912C57.1488 44.8789 54.7948 44.8789 53.4439 43.5912C52.766 42.9604 52.3949 42.1195 52.3949 41.2252C52.3949 40.3242 52.7658 39.4831 53.4758 38.8169L71.0605 21.9724C72.6596 20.4646 74.8534 19.7141 76.9842 20.0446C89.2143 21.8167 97.4939 32.1014 97.5758 32.2091C98.2078 33.0076 99.0626 33.5441 99.9993 33.8189H111.35V67.4733C111.35 70.8695 114.283 73.6334 117.716 73.6334L131 73.8052V24.621L103.592 24.4288ZM9.825 67.6548C8.03398 67.6548 6.55 66.2623 6.55 64.5815C6.55 62.8755 8.03398 61.5082 9.825 61.5082C11.616 61.5082 13.1 62.8882 13.1 64.5988C13.1 66.2709 11.616 67.6548 9.825 67.6548ZM121.175 67.6548C119.384 67.6548 117.9 66.2623 117.9 64.5815C117.9 62.8755 119.384 61.5082 121.175 61.5082C122.966 61.5082 124.45 62.8761 124.45 64.5815C124.45 66.2709 122.976 67.6548 121.175 67.6548Z" fill="black"/>
</svg>
