<svg width="28" height="30" viewBox="0 0 28 30" fill="none" xmlns="http://www.w3.org/2000/svg">
<path d="M14 2.43054C9.485 2.43054 5.83333 6.23436 5.83333 10.9375C5.83333 17.3177 14 26.7361 14 26.7361C14 26.7361 22.1667 17.3177 22.1667 10.9375C22.1667 6.23436 18.515 2.43054 14 2.43054ZM14 13.9757C13.2264 13.9757 12.4846 13.6556 11.9376 13.0858C11.3906 12.516 11.0833 11.7433 11.0833 10.9375C11.0833 10.1317 11.3906 9.35893 11.9376 8.78916C12.4846 8.21939 13.2264 7.89929 14 7.89929C14.7735 7.89929 15.5154 8.21939 16.0624 8.78916C16.6094 9.35893 16.9167 10.1317 16.9167 10.9375C16.9167 11.7433 16.6094 12.516 16.0624 13.0858C15.5154 13.6556 14.7735 13.9757 14 13.9757Z" fill="#E4C523"/>
</svg>
