<svg width="54" height="51" viewBox="0 0 54 51" fill="none" xmlns="http://www.w3.org/2000/svg">
<g clip-path="url(#clip0_119_86)">
<path d="M37.1709 5.99854H16.829C15.9959 5.99854 15.1945 6.31335 14.6018 6.87737C14.0087 7.44178 13.673 8.21001 13.673 9.01384V42.1974C13.673 43.0013 14.0087 43.7695 14.6018 44.3339C15.1945 44.8979 15.9959 45.2127 16.829 45.2127H37.1709C38.004 45.2127 38.8054 44.8979 39.3981 44.3339C39.9912 43.7695 40.3269 43.0013 40.3269 42.1974V9.01384C40.3269 8.21001 39.9912 7.44178 39.3981 6.87737C38.8054 6.31335 38.004 5.99854 37.1709 5.99854ZM17.079 9.26384H36.9209V33.6515H17.079V9.26384ZM17.079 41.9474V36.9168H36.9209V41.9474H17.079Z" fill="black" stroke="black" stroke-width="0.5"/>
<path d="M25.547 38.0493H28.453V40.8146H25.547V38.0493Z" fill="black"/>
</g>
<defs>
<clipPath id="clip0_119_86">
<path d="M0.84613 0.717773H53.1538V40.4932C53.1538 46.016 48.6767 50.4932 43.1538 50.4932H0.84613V0.717773Z" fill="white"/>
</clipPath>
</defs>
</svg>
