<svg width="150" height="150" viewBox="0 0 150 150" fill="none" xmlns="http://www.w3.org/2000/svg">
<path d="M46.875 9.375C48.1182 9.375 49.3105 9.86886 50.1896 10.7479C51.0686 11.627 51.5625 12.8193 51.5625 14.0625V18.75H70.3125V14.0625C70.3125 12.8193 70.8064 11.627 71.6854 10.7479C72.5645 9.86886 73.7568 9.375 75 9.375C76.2432 9.375 77.4355 9.86886 78.3146 10.7479C79.1936 11.627 79.6875 12.8193 79.6875 14.0625V18.75H98.4375V14.0625C98.4375 12.8193 98.9314 11.627 99.8104 10.7479C100.69 9.86886 101.882 9.375 103.125 9.375C104.368 9.375 105.56 9.86886 106.44 10.7479C107.319 11.627 107.812 12.8193 107.812 14.0625V18.75C111.542 18.75 115.119 20.2316 117.756 22.8688C120.393 25.506 121.875 29.0829 121.875 32.8125V56.5875C118.514 57.172 115.317 58.4699 112.5 60.3938V32.8125C112.5 31.5693 112.006 30.377 111.127 29.4979C110.248 28.6189 109.056 28.125 107.812 28.125H42.1875C40.9443 28.125 39.752 28.6189 38.8729 29.4979C37.9939 30.377 37.5 31.5693 37.5 32.8125V126.563C37.5 127.806 37.9939 128.998 38.8729 129.877C39.752 130.756 40.9443 131.25 42.1875 131.25H56.6906V131.269C55.891 134.375 56.1146 137.656 57.3281 140.625H42.1875C38.4579 140.625 34.881 139.143 32.2438 136.506C29.6066 133.869 28.125 130.292 28.125 126.563V32.8125C28.125 29.0829 29.6066 25.506 32.2438 22.8688C34.881 20.2316 38.4579 18.75 42.1875 18.75V14.0625C42.1875 12.8193 42.6814 11.627 43.5604 10.7479C44.4395 9.86886 45.6318 9.375 46.875 9.375ZM93.75 75C94.7531 75 95.6813 75.3188 96.45 75.8531L87.9188 84.375H56.25C55.0068 84.375 53.8145 83.8811 52.9354 83.0021C52.0564 82.123 51.5625 80.9307 51.5625 79.6875C51.5625 78.4443 52.0564 77.252 52.9354 76.3729C53.8145 75.4939 55.0068 75 56.25 75H93.75ZM65.5875 107.203C65.4396 106.075 64.8862 105.039 64.0305 104.288C63.1749 103.538 62.0755 103.124 60.9375 103.125H56.25C55.0068 103.125 53.8145 103.619 52.9354 104.498C52.0564 105.377 51.5625 106.569 51.5625 107.813C51.5625 109.056 52.0564 110.248 52.9354 111.127C53.8145 112.006 55.0068 112.5 56.25 112.5H60.9375C61.4375 112.501 61.9345 112.422 62.4094 112.266C63.3188 110.494 64.3781 108.797 65.5875 107.203ZM56.25 46.875C55.0068 46.875 53.8145 47.3689 52.9354 48.2479C52.0564 49.127 51.5625 50.3193 51.5625 51.5625C51.5625 52.8057 52.0564 53.998 52.9354 54.8771C53.8145 55.7561 55.0068 56.25 56.25 56.25H93.75C94.9932 56.25 96.1855 55.7561 97.0646 54.8771C97.9436 53.998 98.4375 52.8057 98.4375 51.5625C98.4375 50.3193 97.9436 49.127 97.0646 48.2479C96.1855 47.3689 94.9932 46.875 93.75 46.875H56.25ZM115.669 69.8906C118.412 67.1469 122.134 65.6055 126.014 65.6055C129.894 65.6055 133.616 67.1469 136.359 69.8906C139.103 72.6344 140.645 76.3557 140.645 80.2359C140.645 84.1162 139.103 87.8375 136.359 90.5813L96.15 130.781C92.8144 134.12 88.6341 136.488 84.0562 137.634L72.7031 140.475C71.7446 140.715 70.7403 140.703 69.7879 140.44C68.8356 140.176 67.9677 139.67 67.269 138.972C66.5703 138.273 66.0646 137.405 65.8011 136.453C65.5376 135.5 65.5254 134.496 65.7656 133.538L68.6156 122.194C69.7594 117.609 72.1219 113.428 75.4594 110.1L115.669 69.8906Z" fill="black"/>
</svg>
