<svg width="134" height="127" viewBox="0 0 134 127" fill="none" xmlns="http://www.w3.org/2000/svg">
<path d="M93.3087 70.2014C92.7906 69.7104 92.1753 69.3208 91.498 69.055C90.8206 68.7892 90.0945 68.6524 89.3613 68.6524C88.628 68.6524 87.9019 68.7892 87.2246 69.055C86.5472 69.3208 85.9319 69.7104 85.4138 70.2014L76.514 78.6226C72.3879 77.4603 64.6885 74.8188 59.8087 70.2014C54.9288 65.584 52.1372 58.2987 50.9088 54.3945L59.8087 45.9733C60.3276 45.4831 60.7393 44.9009 61.0202 44.26C61.3011 43.619 61.4457 42.932 61.4457 42.2382C61.4457 41.5443 61.3011 40.8573 61.0202 40.2164C60.7393 39.5755 60.3276 38.9932 59.8087 38.503L37.4753 17.3708C36.9573 16.8797 36.342 16.4902 35.6646 16.2244C34.9873 15.9586 34.2612 15.8218 33.5279 15.8218C32.7946 15.8218 32.0686 15.9586 31.3912 16.2244C30.7139 16.4902 30.0986 16.8797 29.5805 17.3708L14.4385 31.6984C12.3168 33.706 11.122 36.4638 11.1667 39.2796C11.2951 46.8027 13.4 72.9328 35.1638 93.5261C56.9277 114.12 84.5428 116.106 92.4935 116.227H92.6498C95.5978 116.227 98.3839 115.129 100.494 113.132L115.636 98.8039C116.155 98.3137 116.567 97.7315 116.848 97.0906C117.129 96.4497 117.273 95.7626 117.273 95.0688C117.273 94.375 117.129 93.6879 116.848 93.047C116.567 92.4061 116.155 91.8239 115.636 91.3337L93.3087 70.2014ZM92.5996 105.661C85.6316 105.55 61.7908 103.781 43.0587 86.0506C24.2652 68.2678 22.445 45.6299 22.3333 39.1687L33.5279 28.5762L47.9664 42.2382L40.7472 49.0692C40.0909 49.6897 39.6084 50.4551 39.3433 51.2963C39.0781 52.1376 39.0387 53.028 39.2285 53.8873C39.3625 54.4949 42.6399 68.9018 51.9083 77.6717C61.1766 86.4416 76.4023 89.5427 77.0444 89.6695C77.952 89.8532 78.8938 89.8184 79.7834 89.5683C80.6731 89.3181 81.4822 88.8606 82.1364 88.2378L89.3557 81.4068L103.794 95.0688L92.5996 105.661Z" fill="black"/>
<path d="M93.7721 30.5942L68.6638 54.3521L76.5586 61.8224L101.667 38.0645L117.278 52.8306V15.8228H78.1667L93.7721 30.5942Z" fill="black"/>
</svg>
